# Blender 4.4.0
# www.blender.org
mtllib butter.mtl
o Butter
v -2.574702 1.611115 7.075755
v -2.574702 1.897162 7.299440
v -2.860748 1.897161 7.075755
v 2.860748 1.897161 7.075755
v 2.574702 1.897162 7.299440
v 2.574702 1.611115 7.075755
v -2.860748 7.046564 7.075755
v -2.574702 7.046564 7.299439
v -2.574702 7.332611 7.075755
v 2.574702 7.332611 7.075755
v 2.574702 7.046564 7.299439
v 2.860748 7.046564 7.075755
v -2.860748 7.046563 -2.096359
v -2.574702 7.332610 -2.096359
v -2.574702 7.046563 -2.320041
v 2.574702 7.046563 -2.320041
v 2.574702 7.332610 -2.096359
v 2.860748 7.046563 -2.096359
v -2.860748 1.897161 -2.096359
v -2.574702 1.897161 -2.320041
v -2.574702 1.611115 -2.096359
v 2.574702 1.611115 -2.096359
v 2.574702 1.897161 -2.320041
v 2.860748 1.897161 -2.096359
v -2.796920 1.674940 3.358288
v 2.796920 1.674940 3.358288
v -2.796920 7.268783 3.358287
v 2.796921 7.268783 3.358287
v -2.860748 7.332610 -5.050388
v 2.860748 7.332610 -5.050388
v -2.860748 1.611114 -5.050388
v 2.860748 1.611114 -5.050388
v -2.860747 7.332610 -1.727395
v 1.076003 7.332610 0.504280
v 1.532280 7.332610 -1.776392
v -1.132461 7.332610 -3.030596
v 2.860748 1.611114 0.939617
v 2.860748 6.261265 -0.195423
v 2.860748 5.089886 -1.059169
v 2.860748 2.825691 -1.753744
v -2.860747 2.579712 0.414629
v -2.860747 3.582650 -3.032391
v -2.860747 6.092075 -2.556067
v 1.419915 1.611114 -1.741221
v -0.187305 1.611114 -1.554079
v -1.847448 1.611114 -0.877735
v -3.060747 7.532609 3.258286
v 2.680270 7.532609 3.258286
v 0.970152 7.532610 0.523618
v 1.418866 7.532610 -1.719249
v -1.120441 7.532610 -2.914415
v -3.024564 7.499227 -1.629435
v -3.060747 6.053443 -2.461616
v -3.060747 3.653281 -2.917199
v -3.060747 2.675245 0.444235
v -3.060747 1.749293 3.258287
v 3.060748 1.711115 0.961121
v 3.060748 1.711114 3.258286
v 3.060748 2.880620 -1.632294
v 3.060748 5.044260 -0.968566
v 3.060748 6.175129 -0.134692
v 3.060748 7.198018 3.258286
v -1.762143 1.411114 -0.804508
v -2.734005 1.411114 3.258286
v -0.162199 1.411114 -1.456327
v 1.346849 1.411114 -1.632038
v 2.728578 1.411114 3.258286
vn -0.7071 -0.7071 -0.0000
vn -0.0000 -0.6160 0.7877
vn -0.6160 -0.0000 0.7877
vn 0.7071 -0.7071 -0.0000
vn 0.6160 -0.0000 0.7877
vn -0.7071 0.7071 -0.0000
vn -0.0000 0.6160 0.7877
vn 0.7071 0.7071 -0.0000
vn -0.6160 -0.0000 -0.7877
vn -0.0000 0.6160 -0.7877
vn 0.6160 -0.0000 -0.7877
vn -0.0000 -0.6160 -0.7877
vn -0.0000 -0.0000 1.0000
vn -0.0000 1.0000 -0.0000
vn -0.0000 -0.0000 -1.0000
vn -0.0000 -1.0000 -0.0000
vn 1.0000 -0.0000 -0.0000
vn -1.0000 -0.0000 -0.0000
vn -0.5245 -0.5245 0.6707
vn 0.5245 -0.5245 0.6707
vn -0.5245 0.5245 0.6707
vn 0.5245 0.5245 0.6707
vn -0.5245 0.5245 -0.6707
vn 0.5245 0.5245 -0.6707
vn -0.5245 -0.5245 -0.6707
vn 0.5245 -0.5245 -0.6707
vn -0.0140 -0.0140 0.9998
vn 0.0150 -0.0137 0.9998
vn 0.0138 0.0125 0.9998
vn -0.0238 0.0237 0.9994
vn -0.0041 1.0000 -0.0013
vn -0.0082 -1.0000 0.0029
vn -0.0005 -1.0000 -0.0007
vn 0.0057 -1.0000 0.0036
vn 1.0000 0.0060 0.0013
vn -1.0000 -0.0089 0.0016
vn 0.0081 1.0000 0.0026
vn -1.0000 0.0037 -0.0010
vn -0.0000 0.3544 0.9351
vn 0.8134 0.3040 -0.4959
vn 0.8770 0.4472 0.1755
vn 0.3809 0.4472 -0.8093
vn -0.5664 0.2281 -0.7920
vn -0.4462 0.3537 -0.8221
vn -0.4477 0.3523 -0.8219
vn -0.3790 0.3074 -0.8728
vn -0.3952 0.2764 -0.8760
vn -0.4472 0.1668 -0.8787
vn -0.4472 -0.8588 -0.2499
vn -0.3637 -0.8912 -0.2710
vn -0.3829 -0.8846 -0.2664
vn -0.2908 -0.9127 -0.2870
vn -0.3544 -0.0000 0.9351
vn 0.3859 -0.8992 -0.2060
vn 0.2843 -0.9586 0.0168
vn 0.4472 -0.8154 -0.3677
vn 0.4472 0.2623 -0.8551
vn 0.4523 0.3830 -0.8055
vn 0.4518 0.3556 -0.8182
vn 0.4472 0.5308 -0.7199
vn 0.2886 0.9197 -0.2662
vn 0.3544 -0.0000 0.9351
vn -0.9340 -0.2861 -0.2140
vn -0.3375 -0.4472 -0.8283
vn -0.2359 -0.4505 -0.8611
vn -0.2221 -0.4505 -0.8647
vn -0.1034 -0.4472 -0.8884
vn 0.9239 -0.2867 -0.2533
vn -0.0000 -0.3544 0.9351
vt 0.387499 0.994187
vt 0.375000 0.994187
vt 0.375000 0.755813
vt 0.387499 0.755813
vt 0.387499 0.012499
vt 0.387499 0.000000
vt 0.612501 0.000000
vt 0.612501 0.012499
vt 0.369187 0.012499
vt 0.387499 0.237501
vt 0.369187 0.237501
vt 0.625000 0.994187
vt 0.612501 0.994187
vt 0.612501 0.755813
vt 0.625000 0.755813
vt 0.630813 0.012499
vt 0.630813 0.237501
vt 0.612501 0.237501
vt 0.375000 0.255813
vt 0.387499 0.255813
vt 0.387499 0.494187
vt 0.375000 0.494187
vt 0.612501 0.255813
vt 0.625000 0.255813
vt 0.625000 0.494187
vt 0.612501 0.494187
vt 0.375000 0.512499
vt 0.387499 0.512499
vt 0.387499 0.737501
vt 0.375000 0.737501
vt 0.612501 0.512499
vt 0.625000 0.512499
vt 0.625000 0.737501
vt 0.612501 0.737501
vt 0.869187 0.012499
vt 0.869187 0.237501
vt 0.130813 0.012499
vt 0.130813 0.237501
vt 0.375000 0.000000
vt 0.625000 0.000000
vt 0.625000 0.250000
vt 0.375000 0.250000
vt 0.547016 0.308001
vt 0.566953 0.354351
vt 0.450517 0.379840
vt 0.375000 0.353355
vt 0.375000 0.500000
vt 0.625000 0.500000
vt 0.625000 0.750000
vt 0.375000 0.750000
vt 0.625000 0.950846
vt 0.625000 1.000000
vt 0.562043 0.896363
vt 0.491816 0.900167
vt 0.419276 0.913912
vt 0.375000 1.000000
vt 0.697222 0.203188
vt 0.714775 0.152005
vt 0.728891 0.053071
vt 0.674154 0.000000
vt 0.875000 0.000000
vt 0.875000 0.250000
vt 0.125000 0.000000
vt 0.315177 0.042323
vt 0.245123 0.086146
vt 0.254804 0.195795
vt 0.271645 0.250000
vt 0.125000 0.250000
s 1
usemtl standardSurface2SG.001
f 1/1/1 3/2/1 19/3/1 21/4/1
f 2/5/2 1/6/2 6/7/2 5/8/2
f 3/9/3 2/5/3 8/10/3 7/11/3
f 4/12/4 6/13/4 22/14/4 24/15/4
f 5/8/5 4/16/5 12/17/5 11/18/5
f 7/19/6 9/20/6 14/21/6 13/22/6
f 9/20/7 8/10/7 11/18/7 10/23/7
f 10/23/8 12/24/8 18/25/8 17/26/8
f 13/27/9 15/28/9 20/29/9 19/30/9
f 15/28/10 14/21/10 17/26/10 16/31/10
f 16/31/11 18/32/11 24/33/11 23/34/11
f 21/4/12 20/29/12 23/34/12 22/14/12
f 2/5/13 5/8/13 11/18/13 8/10/13
f 9/20/14 10/23/14 17/26/14 14/21/14
f 15/28/15 16/31/15 23/34/15 20/29/15
f 21/4/16 22/14/16 6/13/16 1/1/16
f 4/16/17 24/35/17 18/36/17 12/17/17
f 19/37/18 3/9/18 7/11/18 13/38/18
f 1/6/19 2/5/19 3/9/19
f 4/16/20 5/8/20 6/7/20
f 7/11/21 8/10/21 9/20/21
f 10/23/22 11/18/22 12/17/22
f 13/22/23 14/21/23 15/28/23
f 16/31/24 17/26/24 18/25/24
f 19/30/25 20/29/25 21/4/25
f 22/14/26 23/34/26 24/33/26
f 25/39/27 26/40/28 28/41/29 27/42/30
usemtl blinn6SG.001
f 47/42/31 48/41/31 49/43/31 50/44/31 51/45/31 52/46/31
f 58/40/17 57/60/17 59/59/17 60/58/17 61/57/17 62/41/17
f 52/67/38 53/66/38 54/65/38 55/64/38 56/39/38 47/42/38
f 64/56/16 63/55/16 65/54/16 66/53/16 67/52/16
f 27/42/30 28/41/29 48/41/39 47/42/39
f 28/41/40 34/43/40 49/43/40 48/41/40
f 34/43/41 35/44/41 50/44/41 49/43/41
f 35/44/42 36/45/42 51/45/42 50/44/42
f 36/45/43 33/46/44 52/46/45 51/45/43
f 33/40/44 43/60/46 53/60/47 52/40/45
f 43/60/46 42/59/48 54/59/48 53/60/47
f 42/59/49 41/58/50 55/58/51 54/59/49
f 41/58/50 25/57/52 56/57/52 55/58/51
f 25/57/27 27/41/30 47/41/53 56/57/53
f 26/41/34 37/40/33 57/40/54 58/41/55
f 37/67/33 40/66/56 59/66/56 57/67/54
f 40/66/57 39/65/58 60/65/59 59/66/57
f 39/65/58 38/64/60 61/64/60 60/65/59
f 38/64/61 28/39/61 62/39/61 61/64/61
f 28/39/29 26/42/28 58/42/62 62/39/62
f 25/56/63 46/55/63 63/55/63 64/56/63
f 46/55/64 45/54/65 65/54/66 63/55/64
f 45/54/65 44/53/67 66/53/67 65/54/66
f 44/53/68 26/52/68 67/52/68 66/53/68
f 26/52/28 25/56/27 64/56/69 67/52/69
usemtl blinn1SG.001
f 29/47/15 30/48/15 32/49/15 31/50/15
f 28/41/35 38/57/35 39/58/35 40/59/35 37/60/35 32/61/35 30/62/35
f 31/63/36 25/39/36 41/64/36 42/65/36 43/66/36 33/67/36 29/68/36
usemtl blinn7SG.001
f 31/50/32 32/49/32 37/51/33 26/52/34 44/53/32 45/54/32 46/55/32 25/56/32
f 33/46/37 36/45/37 35/44/37 34/43/37 28/41/37 30/48/37 29/47/37
