# This file uses centimeters as units for non-parametric coordinates.

mtllib Sugar.mtl
g default
v 4.921072 6.290110 -0.647726
v 4.186114 6.290110 -1.232048
v 3.041390 6.290110 -1.695769
v 1.598953 6.290110 -1.993495
v 0.000000 6.290110 -2.096085
v -1.598953 6.290110 -1.993495
v -3.041389 6.290110 -1.695769
v -4.186113 6.290110 -1.232048
v -4.921070 6.290110 -0.647726
v -5.174319 6.290110 -0.000000
v -4.921070 6.290110 0.647726
v -4.186112 6.290110 1.232048
v -3.041388 6.290110 1.695768
v -1.598953 6.290110 1.993495
v -0.000000 6.290110 2.096084
v 1.598952 6.290110 1.993495
v 3.041388 6.290110 1.695768
v 4.186111 6.290110 1.232047
v 4.921069 6.290110 0.647726
v 5.174318 6.290110 -0.000000
v 4.921072 14.727233 -0.647726
v 4.186114 14.727233 -1.232048
v 3.041390 14.727233 -1.695769
v 1.598953 14.727233 -1.993495
v 0.000000 14.727233 -2.096085
v -1.598953 14.727233 -1.993495
v -3.041389 14.727233 -1.695769
v -4.186113 14.727233 -1.232048
v -4.921070 14.727233 -0.647726
v -5.174319 14.727233 -0.000000
v -4.921070 14.727233 0.647726
v -4.186112 14.727233 1.232048
v -3.041388 14.727233 1.695768
v -1.598953 14.727233 1.993495
v -0.000000 14.727233 2.096084
v 1.598952 14.727233 1.993495
v 3.041388 14.727233 1.695768
v 4.186111 14.727233 1.232047
v 4.921069 14.727233 0.647726
v 5.174318 14.727233 -0.000000
v 4.100603 4.659534 -0.000001
v 4.087839 4.659534 -0.004554
v 4.087838 4.659534 0.004553
v 3.676817 4.659533 0.050133
v 2.750200 4.659533 0.102491
v 1.465216 4.659533 0.139486
v -0.000000 4.659533 0.152598
v -1.465217 4.659533 0.139486
v -2.750201 4.659533 0.102491
v -3.676818 4.659533 0.050133
v -4.087839 4.659534 0.004553
v -4.100603 4.659534 -0.000000
v -4.087839 4.659534 -0.004554
v -3.676819 4.659534 -0.050134
v -2.750201 4.659534 -0.102491
v -1.465217 4.659534 -0.139487
v 0.000000 4.659534 -0.152599
v 1.465217 4.659534 -0.139487
v 2.750201 4.659534 -0.102491
v 3.676820 4.659534 -0.050134
v 4.087839 16.357811 -0.004554
v 3.676820 16.357811 -0.050134
v 2.750201 16.357811 -0.102491
v 1.465217 16.357811 -0.139487
v 0.000000 16.357811 -0.152599
v -1.465217 16.357811 -0.139487
v -2.750201 16.357811 -0.102491
v -3.676819 16.357811 -0.050134
v -4.087839 16.357811 -0.004554
v -4.100603 16.357811 -0.000000
v -4.087839 16.357811 0.004553
v -3.676818 16.357811 0.050133
v -2.750201 16.357811 0.102491
v -1.465217 16.357811 0.139486
v -0.000000 16.357811 0.152598
v 1.465216 16.357811 0.139486
v 2.750200 16.357811 0.102490
v 3.676817 16.357811 0.050133
v 4.087838 16.357811 0.004553
v 4.100603 16.357811 -0.000001
v 4.100603 4.170361 -0.000002
v 4.087839 4.170361 -0.000003
v 4.087838 4.170361 -0.000002
v 3.676817 4.170360 -0.000002
v 2.750200 4.170360 -0.000001
v 1.465216 4.170360 -0.000001
v -0.000000 4.170360 -0.000001
v -1.465217 4.170360 -0.000001
v -2.750201 4.170360 -0.000001
v -3.676818 4.170360 -0.000002
v -4.087839 4.170361 -0.000002
v -4.100603 4.170361 -0.000002
v -4.087839 4.170361 -0.000003
v -3.676819 4.170361 -0.000003
v -2.750201 4.170361 -0.000004
v -1.465217 4.170361 -0.000004
v 0.000000 4.170361 -0.000004
v 1.465217 4.170361 -0.000004
v 2.750201 4.170361 -0.000004
v 3.676820 4.170361 -0.000003
v 4.087839 16.846984 -0.000003
v 3.676820 16.846984 -0.000003
v 2.750201 16.846984 -0.000004
v 1.465217 16.846984 -0.000004
v 0.000000 16.846984 -0.000004
v -1.465217 16.846984 -0.000004
v -2.750201 16.846984 -0.000004
v -3.676819 16.846984 -0.000003
v -4.087839 16.846984 -0.000003
v -4.100603 16.846984 -0.000002
v -4.087839 16.846984 -0.000002
v -3.676818 16.846984 -0.000002
v -2.750201 16.846984 -0.000001
v -1.465217 16.846984 -0.000001
v -0.000000 16.846984 -0.000001
v 1.465216 16.846984 -0.000001
v 2.750200 16.846984 -0.000001
v 3.676817 16.846984 -0.000002
v 4.087838 16.846984 -0.000002
v 4.100603 16.846984 -0.000002
vt 0.970697 0.835412
vt 0.900399 0.758859
vt 0.790907 0.704153
vt 0.652939 0.659357
vt 0.500000 0.642500
vt 0.347061 0.659358
vt 0.209094 0.704154
vt 0.099602 0.758859
vt 0.029304 0.835411
vt 0.005080 0.924036
vt 0.029304 0.527107
vt 0.099602 0.603659
vt 0.209094 0.658365
vt 0.347062 0.703161
vt 0.500000 0.720019
vt 0.652938 0.703161
vt 0.790906 0.658364
vt 0.900398 0.603659
vt 0.970697 0.527108
vt 0.994919 0.924036
vt 0.489307 0.011855
vt -0.009454 0.014523
vt 0.157746 0.014523
vt 0.324947 0.014523
vt 0.492147 0.014523
vt 0.659348 0.014523
vt 0.826550 0.014523
vt 0.993749 0.014523
vt 0.900897 0.011855
vt 0.748867 0.011855
vt 0.497794 0.011855
vt -0.012888 0.011855
vt 0.156221 0.011855
vt 0.325331 0.011855
vt 0.494440 0.011855
vt 0.663550 0.011855
vt 0.832660 0.011855
vt 1.001769 0.011855
vt 0.896459 0.011855
vt 0.946292 0.011855
vt 0.996125 0.011855
vt 0.489307 0.992556
vt -0.009454 0.995224
vt 0.157746 0.995224
vt 0.324947 0.995224
vt 0.492147 0.995224
vt 0.659348 0.995224
vt 0.826550 0.995224
vt 0.993749 0.995224
vt 0.900897 0.992556
vt 0.748867 0.992556
vt 0.497794 0.992556
vt -0.012888 0.992556
vt 0.156221 0.992556
vt 0.325331 0.992556
vt 0.494440 0.992556
vt 0.663550 0.992556
vt 0.832660 0.992556
vt 1.001769 0.992556
vt 0.896459 0.992556
vt 0.946292 0.992556
vt 0.996125 0.992556
vt 0.982589 0.885150
vt 0.931090 0.769060
vt 0.850877 0.665062
vt 0.749803 0.607151
vt 0.637761 0.589416
vt 0.525720 0.607151
vt 0.424646 0.665062
vt 0.344434 0.769060
vt 0.292934 0.885151
vt 0.275188 0.992609
vt 0.008568 0.593997
vt 0.081099 0.710087
vt 0.194070 0.814085
vt 0.336421 0.871996
vt 0.494218 0.889731
vt 0.652016 0.871996
vt 0.794367 0.814085
vt 0.907337 0.710087
vt 0.979869 0.593996
vt 1.000335 0.992608
vt 0.970697 0.925361
vt 0.994919 0.922506
vt 0.970697 0.438705
vt 0.900398 0.448883
vt 0.790906 0.476770
vt 0.652938 0.479885
vt 0.500000 0.480597
vt 0.347062 0.479886
vt 0.209094 0.476770
vt 0.099602 0.448892
vt 0.029304 0.437901
vt 0.005080 0.924022
vt 0.029304 0.924626
vt 0.099602 0.913625
vt 0.209094 0.885748
vt 0.347061 0.882632
vt 0.500000 0.881921
vt 0.652939 0.882632
vt 0.790907 0.885748
vt 0.900399 0.913618
vt 0.979869 0.486576
vt 0.907337 0.520782
vt 0.794367 0.525645
vt 0.652016 0.545047
vt 0.494218 0.549400
vt 0.336421 0.545048
vt 0.194070 0.525646
vt 0.081099 0.520779
vt 0.008568 0.486819
vt 0.275188 0.992622
vt 0.292934 0.992317
vt 0.344434 0.958369
vt 0.424646 0.953502
vt 0.525720 0.934100
vt 0.637761 0.929747
vt 0.749803 0.934099
vt 0.850877 0.953501
vt 0.931090 0.958372
vt 0.982589 0.992054
vt 1.000335 0.993118
vt 0.970697 0.931104
vt 0.994919 0.438162
vt 0.970697 0.431736
vt 0.900398 0.438480
vt 0.790906 0.438482
vt 0.652938 0.438482
vt 0.500000 0.438482
vt 0.347062 0.438483
vt 0.209094 0.438483
vt 0.099602 0.438481
vt 0.029304 0.431618
vt 0.005080 0.438363
vt 0.029304 0.931025
vt 0.099602 0.924035
vt 0.209094 0.924036
vt 0.347061 0.924036
vt 0.500000 0.924035
vt 0.652939 0.924035
vt 0.790907 0.924035
vt 0.900399 0.924035
vt 0.979869 0.484387
vt 0.907337 0.486538
vt 0.794367 0.486539
vt 0.652016 0.486539
vt 0.494218 0.486539
vt 0.336421 0.486538
vt 0.194070 0.486539
vt 0.081099 0.486539
vt 0.008568 0.484341
vt -0.016425 0.486554
vt 0.292934 0.994787
vt 0.344434 0.992609
vt 0.424646 0.992609
vt 0.525720 0.992608
vt 0.637761 0.992608
vt 0.749803 0.992608
vt 0.850877 0.992608
vt 0.931090 0.992608
vt 0.982589 0.994842
vt 1.004861 0.486463
vn 0.759693 -0.076944 -0.645714
vn 0.458231 -0.115193 -0.881337
vn 0.458231 0.115193 -0.881337
vn 0.759693 0.076944 -0.645714
vn 0.261664 -0.143628 -0.954412
vn 0.261664 0.143628 -0.954412
vn 0.120238 -0.159851 -0.979791
vn 0.120238 0.159851 -0.979791
vn -0.000000 -0.165121 -0.986273
vn -0.000000 0.165121 -0.986273
vn -0.120238 -0.159851 -0.979791
vn -0.120238 0.159851 -0.979791
vn -0.261664 -0.143628 -0.954412
vn -0.261664 0.143628 -0.954412
vn -0.458231 -0.115193 -0.881337
vn -0.458231 0.115193 -0.881337
vn -0.759692 -0.076944 -0.645715
vn -0.759692 0.076944 -0.645715
vn -0.998434 -0.055938 -0.000000
vn -0.998434 0.055938 -0.000000
vn -0.759692 -0.076944 0.645715
vn -0.759692 0.076944 0.645715
vn -0.458231 -0.115193 0.881337
vn -0.458231 0.115193 0.881337
vn -0.261664 -0.143628 0.954412
vn -0.261664 0.143628 0.954412
vn -0.120238 -0.159851 0.979791
vn -0.120238 0.159851 0.979791
vn 0.000000 -0.165121 0.986273
vn 0.000000 0.165121 0.986273
vn 0.120238 -0.159851 0.979791
vn 0.120238 0.159851 0.979791
vn 0.261664 -0.143628 0.954412
vn 0.261664 0.143628 0.954412
vn 0.458231 -0.115193 0.881337
vn 0.458231 0.115193 0.881337
vn 0.759692 -0.076944 0.645715
vn 0.759692 0.076944 0.645715
vn 0.998434 -0.055938 0.000003
vn 0.998434 0.055938 0.000003
vn 0.000000 -0.929023 -0.370023
vn 0.000000 -0.000000 -0.000000
vn 0.000000 -0.929023 -0.370023
vn 0.000000 -0.929023 -0.370023
vn 0.000000 -0.929023 -0.370023
vn 0.000000 -0.929023 -0.370023
vn 0.000000 -0.929023 -0.370023
vn 0.000000 -0.929023 -0.370023
vn 0.000000 -0.929023 -0.370023
vn 0.000000 -0.929023 -0.370023
vn 0.000000 -0.929023 -0.370023
vn 0.000000 -0.000000 -0.000000
vn 0.000000 -0.929023 -0.370023
vn 0.000000 -0.929023 -0.370023
vn 0.000000 -0.929023 -0.370023
vn 0.000000 -0.929023 -0.370023
vn 0.000000 -0.929023 -0.370023
vn 0.000000 -0.929023 -0.370023
vn 0.000000 -0.929023 -0.370023
vn 0.000000 -0.929023 -0.370023
vn 0.000000 0.993935 0.109966
vn 0.000000 0.993935 0.109966
vn 0.000000 0.993935 0.109966
vn 0.000000 0.993935 0.109966
vn 0.000000 0.993935 0.109966
vn 0.000000 0.993935 0.109966
vn 0.000000 0.993935 0.109966
vn 0.000000 0.993935 0.109966
vn 0.000000 0.993935 0.109966
vn 0.000000 0.000000 0.000000
vn 0.000000 0.993935 0.109966
vn 0.000000 0.993935 0.109966
vn 0.000000 0.993935 0.109966
vn 0.000000 0.993935 0.109966
vn 0.000000 0.993935 0.109966
vn 0.000000 0.993935 0.109966
vn 0.000000 0.993935 0.109966
vn 0.000000 0.993935 0.109966
vn 0.000000 0.993935 0.109966
vn 0.000000 0.000000 0.000000
vn 0.788410 -0.524433 -0.321526
vn 0.551747 -0.573272 -0.605752
vn 0.551746 -0.573271 0.605753
vn 0.788409 -0.524432 0.321531
vn 0.261494 -0.631966 0.729548
vn 0.125023 -0.702327 0.700789
vn 0.051970 -0.745450 0.664532
vn 0.000000 -0.759076 0.651002
vn -0.051970 -0.745450 0.664532
vn -0.125023 -0.702328 0.700789
vn -0.261494 -0.631966 0.729548
vn -0.551747 -0.573271 0.605752
vn -0.788410 -0.524432 0.321530
vn -0.551747 -0.573271 -0.605752
vn -0.788409 -0.524432 -0.321530
vn -0.261494 -0.631966 -0.729548
vn -0.125023 -0.702328 -0.700789
vn -0.051970 -0.745450 -0.664532
vn -0.000000 -0.759076 -0.651002
vn 0.051970 -0.745451 -0.664532
vn 0.125023 -0.702328 -0.700789
vn 0.261494 -0.631966 -0.729548
vn 0.261494 0.631966 -0.729548
vn 0.551747 0.573272 -0.605752
vn 0.125023 0.702327 -0.700789
vn 0.051970 0.745450 -0.664532
vn -0.000000 0.759076 -0.651002
vn -0.051970 0.745450 -0.664532
vn -0.125023 0.702327 -0.700789
vn -0.261494 0.631966 -0.729548
vn -0.551747 0.573271 -0.605752
vn -0.788409 0.524432 -0.321530
vn -0.551747 0.573271 0.605753
vn -0.788410 0.524432 0.321529
vn -0.261494 0.631966 0.729548
vn -0.125023 0.702328 0.700789
vn -0.051970 0.745450 0.664532
vn 0.000000 0.759076 0.651002
vn 0.051970 0.745450 0.664532
vn 0.125023 0.702327 0.700789
vn 0.261494 0.631966 0.729548
vn 0.551746 0.573271 0.605754
vn 0.788409 0.524432 0.321531
vn 0.788411 0.524433 -0.321526
vn 0.058913 -0.054196 -0.996791
vn 0.175600 -0.004578 -0.984451
vn 0.175600 -0.004578 -0.984451
vn 0.058961 -0.054175 -0.996789
vn 0.175595 -0.004586 0.984452
vn 0.058913 -0.054204 0.996790
vn 0.058961 -0.054183 0.996789
vn 0.175595 -0.004586 0.984452
vn 0.035936 -0.125499 0.991443
vn 0.036301 -0.124193 0.991594
vn 0.019561 -0.205887 0.978380
vn 0.019770 -0.204605 0.978645
vn 0.008702 -0.265199 0.964154
vn 0.008784 -0.264806 0.964262
vn 0.000000 -0.286074 0.958208
vn 0.000000 -0.286074 0.958208
vn -0.008702 -0.265199 0.964154
vn -0.008784 -0.264806 0.964262
vn -0.019561 -0.205887 0.978380
vn -0.019770 -0.204605 0.978645
vn -0.035936 -0.125499 0.991443
vn -0.036301 -0.124193 0.991594
vn -0.058913 -0.054204 0.996790
vn -0.058961 -0.054184 0.996789
vn -0.175603 -0.004586 0.984450
vn -0.175603 -0.004586 0.984450
vn -0.175605 -0.004578 -0.984450
vn -0.058913 -0.054195 -0.996791
vn -0.058961 -0.054175 -0.996789
vn -0.175605 -0.004578 -0.984450
vn -0.035936 -0.125490 -0.991444
vn -0.036301 -0.124185 -0.991595
vn -0.019561 -0.205878 -0.978382
vn -0.019770 -0.204597 -0.978647
vn -0.008702 -0.265192 -0.964156
vn -0.008784 -0.264799 -0.964264
vn 0.000000 -0.286066 -0.958210
vn 0.000000 -0.286066 -0.958210
vn 0.008702 -0.265192 -0.964156
vn 0.008784 -0.264799 -0.964264
vn 0.019561 -0.205879 -0.978382
vn 0.019770 -0.204597 -0.978647
vn 0.035936 -0.125491 -0.991444
vn 0.036301 -0.124185 -0.991595
vn 0.058912 0.054196 -0.996791
vn 0.035936 0.125490 -0.991444
vn 0.036301 0.124185 -0.991595
vn 0.058961 0.054175 -0.996789
vn 0.019561 0.205878 -0.978382
vn 0.019770 0.204597 -0.978647
vn 0.008702 0.265191 -0.964157
vn 0.008784 0.264799 -0.964264
vn 0.000000 0.286066 -0.958210
vn 0.000000 0.286066 -0.958210
vn -0.008702 0.265191 -0.964157
vn -0.008784 0.264798 -0.964264
vn -0.019561 0.205878 -0.978382
vn -0.019770 0.204596 -0.978647
vn -0.035936 0.125490 -0.991444
vn -0.036301 0.124185 -0.991595
vn -0.058913 0.054195 -0.996791
vn -0.058961 0.054175 -0.996789
vn -0.175604 0.004578 -0.984450
vn -0.175604 0.004578 -0.984450
vn -0.175603 0.004586 0.984450
vn -0.058912 0.054204 0.996790
vn -0.058961 0.054183 0.996789
vn -0.175603 0.004586 0.984450
vn -0.035936 0.125499 0.991443
vn -0.036301 0.124193 0.991594
vn -0.019561 0.205886 0.978380
vn -0.019770 0.204604 0.978645
vn -0.008702 0.265199 0.964154
vn -0.008784 0.264806 0.964262
vn 0.000000 0.286073 0.958208
vn 0.000000 0.286073 0.958208
vn 0.008702 0.265199 0.964154
vn 0.008784 0.264806 0.964262
vn 0.019561 0.205886 0.978380
vn 0.019770 0.204604 0.978645
vn 0.035936 0.125498 0.991443
vn 0.036301 0.124193 0.991594
vn 0.058913 0.054203 0.996790
vn 0.058961 0.054183 0.996789
vn 0.175596 0.004586 0.984452
vn 0.175596 0.004586 0.984452
vn 0.175600 0.004578 -0.984451
vn 0.175600 0.004578 -0.984451
s 1
g pCylinder1
usemtl blinn2SG
f 1/21/1 2/22/2 22/43/3 21/42/4
usemtl blinn3SG
f 2/22/2 3/23/5 23/44/6 22/43/3
f 3/23/5 4/24/7 24/45/8 23/44/6
f 4/24/7 5/25/9 25/46/10 24/45/8
f 5/25/9 6/26/11 26/47/12 25/46/10
f 6/26/11 7/27/13 27/48/14 26/47/12
f 7/27/13 8/28/15 28/49/16 27/48/14
usemtl blinn2SG
f 8/28/15 9/29/17 29/50/18 28/49/16
f 9/29/17 10/30/19 30/51/20 29/50/18
f 10/30/19 11/31/21 31/52/22 30/51/20
f 11/31/21 12/32/23 32/53/24 31/52/22
usemtl blinn3SG
f 12/32/23 13/33/25 33/54/26 32/53/24
f 13/33/25 14/34/27 34/55/28 33/54/26
f 14/34/27 15/35/29 35/56/30 34/55/28
f 15/35/29 16/36/31 36/57/32 35/56/30
f 16/36/31 17/37/33 37/58/34 36/57/32
f 17/37/33 18/38/35 38/59/36 37/58/34
usemtl blinn2SG
f 18/38/35 19/39/37 39/60/38 38/59/36
f 19/39/37 20/40/39 40/61/40 39/60/38
f 20/40/39 1/41/1 21/62/4 40/61/40
s off
f 82/123/41 81/124/42 83/125/43 84/126/44 85/127/45 86/128/46 87/129/47 88/130/48 89/131/49 90/132/50 91/133/51 92/134/52 93/135/53 94/136/54 95/137/55 96/138/56 97/139/57 98/140/58 99/141/59 100/142/60
f 101/143/61 102/144/62 103/145/63 104/146/64 105/147/65 106/148/66 107/149/67 108/150/68 109/151/69 110/152/70 111/153/71 112/154/72 113/155/73 114/156/74 115/157/75 116/158/76 117/159/77 118/160/78 119/161/79 120/162/80
s 1
f 1/1/1 20/20/39 41/84/81 42/83/82
f 20/20/39 19/19/37 43/85/83 41/84/84
f 19/19/37 18/18/35 44/86/85 43/85/83
f 18/18/35 17/17/33 45/87/86 44/86/85
f 17/17/33 16/16/31 46/88/87 45/87/86
f 16/16/31 15/15/29 47/89/88 46/88/87
f 15/15/29 14/14/27 48/90/89 47/89/88
f 14/14/27 13/13/25 49/91/90 48/90/89
f 13/13/25 12/12/23 50/92/91 49/91/90
f 12/12/23 11/11/21 51/93/92 50/92/91
f 11/11/21 10/10/19 52/94/93 51/93/92
f 10/10/19 9/9/17 53/95/94 52/94/95
f 9/9/17 8/8/15 54/96/96 53/95/94
f 8/8/15 7/7/13 55/97/97 54/96/96
f 7/7/13 6/6/11 56/98/98 55/97/97
f 6/6/11 5/5/9 57/99/99 56/98/98
f 5/5/9 4/4/7 58/100/100 57/99/99
f 4/4/7 3/3/5 59/101/101 58/100/100
f 3/3/5 2/2/2 60/102/102 59/101/101
f 2/2/2 1/1/1 42/83/82 60/102/102
f 21/81/4 22/80/3 62/104/103 61/103/104
f 22/80/3 23/79/6 63/105/105 62/104/103
f 23/79/6 24/78/8 64/106/106 63/105/105
f 24/78/8 25/77/10 65/107/107 64/106/106
f 25/77/10 26/76/12 66/108/108 65/107/107
f 26/76/12 27/75/14 67/109/109 66/108/108
f 27/75/14 28/74/16 68/110/110 67/109/109
f 28/74/16 29/73/18 69/111/111 68/110/110
f 29/73/18 30/72/20 70/112/112 69/111/111
f 30/72/20 31/71/22 71/113/113 70/112/114
f 31/71/22 32/70/24 72/114/115 71/113/113
f 32/70/24 33/69/26 73/115/116 72/114/115
f 33/69/26 34/68/28 74/116/117 73/115/116
f 34/68/28 35/67/30 75/117/118 74/116/117
f 35/67/30 36/66/32 76/118/119 75/117/118
f 36/66/32 37/65/34 77/119/120 76/118/119
f 37/65/34 38/64/36 78/120/121 77/119/120
f 38/64/36 39/63/38 79/121/122 78/120/121
f 39/63/38 40/82/40 80/122/123 79/121/122
f 40/82/40 21/81/4 61/103/104 80/122/124
s 2
f 42/83/125 41/84/126 81/124/127 82/123/128
s 3
f 41/84/129 43/85/130 83/125/131 81/124/132
f 43/85/130 44/86/133 84/126/134 83/125/131
f 44/86/133 45/87/135 85/127/136 84/126/134
f 45/87/135 46/88/137 86/128/138 85/127/136
f 46/88/137 47/89/139 87/129/140 86/128/138
f 47/89/139 48/90/141 88/130/142 87/129/140
f 48/90/141 49/91/143 89/131/144 88/130/142
f 49/91/143 50/92/145 90/132/146 89/131/144
f 50/92/145 51/93/147 91/133/148 90/132/146
f 51/93/147 52/94/149 92/134/150 91/133/148
s 2
f 52/94/151 53/95/152 93/135/153 92/134/154
f 53/95/152 54/96/155 94/136/156 93/135/153
f 54/96/155 55/97/157 95/137/158 94/136/156
f 55/97/157 56/98/159 96/138/160 95/137/158
f 56/98/159 57/99/161 97/139/162 96/138/160
f 57/99/161 58/100/163 98/140/164 97/139/162
f 58/100/163 59/101/165 99/141/166 98/140/164
f 59/101/165 60/102/167 100/142/168 99/141/166
f 60/102/167 42/83/125 82/123/128 100/142/168
s 5
f 61/103/169 62/104/170 102/144/171 101/143/172
f 62/104/170 63/105/173 103/145/174 102/144/171
f 63/105/173 64/106/175 104/146/176 103/145/174
f 64/106/175 65/107/177 105/147/178 104/146/176
f 65/107/177 66/108/179 106/148/180 105/147/178
f 66/108/179 67/109/181 107/149/182 106/148/180
f 67/109/181 68/110/183 108/150/184 107/149/182
f 68/110/183 69/111/185 109/151/186 108/150/184
f 69/111/185 70/112/187 110/152/188 109/151/186
s 6
f 70/112/189 71/113/190 111/153/191 110/152/192
f 71/113/190 72/114/193 112/154/194 111/153/191
f 72/114/193 73/115/195 113/155/196 112/154/194
f 73/115/195 74/116/197 114/156/198 113/155/196
f 74/116/197 75/117/199 115/157/200 114/156/198
f 75/117/199 76/118/201 116/158/202 115/157/200
f 76/118/201 77/119/203 117/159/204 116/158/202
f 77/119/203 78/120/205 118/160/206 117/159/204
f 78/120/205 79/121/207 119/161/208 118/160/206
f 79/121/207 80/122/209 120/162/210 119/161/208
s 5
f 80/122/211 61/103/169 101/143/172 120/162/212
